<svg width="512" height="512" viewBox="0 0 512 512" xmlns="http://www.w3.org/2000/svg">
  <!-- Background Circle -->
  <circle cx="256" cy="256" r="240" fill="#8B0000" stroke="#4B0000" stroke-width="16"/>
  
  <!-- Blood Drop Shape -->
  <path d="M256 80 C200 160, 140 220, 140 300 C140 380, 190 430, 256 430 C322 430, 372 380, 372 300 C372 220, 312 160, 256 80 Z" 
        fill="#DC143C" 
        stroke="#8B0000" 
        stroke-width="8"/>
  
  <!-- Highlight -->
  <ellipse cx="220" cy="200" rx="30" ry="50" fill="#FF6B6B" opacity="0.6" transform="rotate(-20 220 200)"/>
  
  <!-- Boss Crown -->
  <path d="M180 120 L200 80 L220 100 L240 70 L256 90 L272 70 L290 100 L310 80 L330 120 L310 140 L200 140 Z" 
        fill="#FFD700" 
        stroke="#B8860B" 
        stroke-width="4"/>
  
  <!-- Crown Jewels -->
  <circle cx="220" cy="110" r="8" fill="#FF1493"/>
  <circle cx="256" cy="100" r="10" fill="#FF1493"/>
  <circle cx="290" cy="110" r="8" fill="#FF1493"/>
</svg>